<svg xmlns="http://www.w3.org/2000/svg" width="71" height="16" viewBox="0 0 71 16">
    <g fill="#FFF" fill-rule="evenodd">
        <path fill-opacity=".01" d="M0 0h71v16H0z"/>
        <path fill-rule="nonzero" d="M6.871 1.714c3.795 0 6.87 3.07 6.87 6.857 0 3.788-3.075 6.858-6.87 6.858S0 12.359 0 8.57c0-3.787 3.076-6.857 6.871-6.857zm16.918 3.114h.029V4.08h2.049v7.428c0 2.159-1.717 3.656-4.126 3.656a4.932 4.932 0 0 1-4.096-1.814l1.529-1.266a2.956 2.956 0 0 0 2.567 1.252c1.197 0 2.077-.763 2.077-1.8v-.547h-.029c-.656.64-1.55.974-2.466.922a3.998 3.998 0 0 1-3.544-1.94 3.981 3.981 0 0 1-.037-4.032 3.998 3.998 0 0 1 3.508-2.003c.933-.06 1.85.262 2.539.892zm-19.614.065a.505.505 0 0 0-.169.395L4.01 7.32a.352.352 0 0 1-.343.357.348.348 0 0 1-.337-.36 9.102 9.102 0 0 1 .139-1.622.523.523 0 0 0-.407-.605.495.495 0 0 0-.572.43 12.697 12.697 0 0 0-.155 2.34c.01.78.407 1.504 1.062 1.93.293.18.479.492.498.834l.054 1.198a.57.57 0 0 0 .553.559.57.57 0 0 0 .554-.558l.053-1.156c.021-.343.213-.653.51-.825A2.217 2.217 0 0 0 6.667 8.03c.034-.84-.016-1.68-.149-2.509a.498.498 0 0 0-.572-.43.523.523 0 0 0-.406.605c.095.536.141 1.08.138 1.623a.337.337 0 0 1-.512.31.337.337 0 0 1-.163-.308L5 5.316a.54.54 0 0 0-.413-.547.508.508 0 0 0-.411.124zm5.274-.131c-1.31 0-1.964 1.976-1.964 3.28.008.674.348 1.3.908 1.675.26.17.423.453.442.763l.062 1.343a.55.55 0 0 0 .83.483.55.55 0 0 0 .273-.483l.062-1.343a.984.984 0 0 1 .442-.763c.56-.375.9-1.001.909-1.674 0-1.305-.655-3.281-1.964-3.281zm21.783-.898c2.497 0 4.314 1.77 4.314 4.03 0 2.26-1.817 4.031-4.314 4.031a4.05 4.05 0 0 1-3.725-1.935 4.032 4.032 0 0 1 0-4.191 4.05 4.05 0 0 1 3.725-1.935zm15.753 0c2.495 0 4.314 1.77 4.314 4.03 0 2.26-1.819 4.031-4.314 4.031A4.05 4.05 0 0 1 43.26 9.99a4.032 4.032 0 0 1 0-4.191 4.05 4.05 0 0 1 3.726-1.935zm9.477 0c2.496 0 4.313 1.77 4.313 4.03 0 2.26-1.817 4.031-4.313 4.031a4.05 4.05 0 0 1-3.725-1.935 4.032 4.032 0 0 1 0-4.191 4.05 4.05 0 0 1 3.725-1.935zM70.354 1.2v10.51h-1.976v-.75h-.03a3.376 3.376 0 0 1-2.582.965 3.94 3.94 0 0 1-2.954-1.11 3.924 3.924 0 0 1-1.186-2.92 3.968 3.968 0 0 1 1.18-2.884 3.984 3.984 0 0 1 2.903-1.147c.9-.042 1.784.25 2.48.82h.03V1.2h2.135zm-28.23-.057V2.97h-1.746c-.418 0-.634.201-.634.59v.519H42.6v1.813h-2.856v5.816h-2.135V5.893h-1.832V4.08h1.832v-.778c0-1.338.937-2.16 2.51-2.16h2.005zM31.232 5.735a2.162 2.162 0 0 0-2.148 2.169 2.162 2.162 0 0 0 2.168 2.15 2.162 2.162 0 0 0 2.159-2.16 2.065 2.065 0 0 0-.61-1.561 2.073 2.073 0 0 0-1.569-.598zm15.753 0a2.162 2.162 0 0 0-2.149 2.169 2.162 2.162 0 0 0 2.169 2.15 2.162 2.162 0 0 0 2.159-2.16 2.065 2.065 0 0 0-.61-1.561 2.074 2.074 0 0 0-1.569-.598zm9.477 0a2.162 2.162 0 0 0-2.15 2.169 2.162 2.162 0 0 0 2.17 2.15 2.162 2.162 0 0 0 2.158-2.16 2.065 2.065 0 0 0-.609-1.561 2.073 2.073 0 0 0-1.57-.598zm-34.807.072c-1.385 0-2.308.835-2.308 2.088a2.014 2.014 0 0 0 .61 1.588 2.023 2.023 0 0 0 1.61.557c1.199 0 2.165-.75 2.165-1.685v-.892c0-.864-.98-1.656-2.077-1.656zm42.767.504a2.116 2.116 0 0 0-.66 1.584c0 1.31.894 2.145 2.278 2.145 1.213 0 2.179-.75 2.179-1.685V7.39c0-.907-1.01-1.656-2.179-1.656a2.125 2.125 0 0 0-1.618.576z"/>
    </g>
</svg>
